<svg width="192" height="192" viewBox="0 0 192 192" fill="none" xmlns="http://www.w3.org/2000/svg">
<rect x="52" y="88" width="88" height="8" fill="#FF8205"/>
<rect width="88" height="8" transform="matrix(1 0 0 -1 52 88)" fill="#526989"/>
<rect width="88" height="8" transform="matrix(1 0 0 -1 52 80)" fill="#526989"/>
<rect width="72" height="8" transform="matrix(1 0 0 -1 60 72)" fill="#526989"/>
<rect width="56" height="8" transform="matrix(1 0 0 -1 68 64)" fill="#526989"/>
<rect width="40" height="8" transform="matrix(1 0 0 -1 76 56)" fill="#526989"/>
<rect x="76" y="48" width="8" height="8" fill="#879FBB"/>
<rect x="116" y="80" width="8" height="8" fill="#879FBB"/>
<rect x="108" y="48" width="8" height="8" fill="#879FBB"/>
<rect x="92" y="72" width="8" height="8" fill="#879FBB"/>
<rect x="76" y="72" width="8" height="8" fill="#879FBB"/>
<rect x="108" y="72" width="8" height="8" fill="#879FBB"/>
<rect x="76" y="56" width="16" height="8" fill="#879FBB"/>
<rect x="68" y="80" width="24" height="8" fill="#879FBB"/>
<rect x="100" y="80" width="16" height="8" fill="#879FBB"/>
<rect x="76" y="64" width="40" height="8" fill="#879FBB"/>
<rect x="100" y="56" width="16" height="8" fill="#879FBB"/>
<rect width="40" height="8" transform="matrix(1 0 0 -1 76 40)" fill="#526989"/>
<rect width="24" height="8" transform="matrix(1 0 0 -1 84 32)" fill="#526989"/>
<rect width="24" height="8" transform="matrix(1 0 0 -1 84 24)" fill="#526989"/>
<rect width="8" height="8" transform="matrix(1 0 0 -1 92 16)" fill="#526989"/>
<rect width="8" height="8" transform="matrix(1 0 0 -1 92 8)" fill="#526989"/>
<rect width="40" height="8" transform="matrix(1 0 0 -1 76 48)" fill="#FF8205"/>
<rect x="44" y="96" width="104" height="72" fill="#FF8205"/>
<rect width="88" height="16" transform="matrix(1 0 0 -1 52 184)" fill="#FF8205"/>
<rect x="60" y="184" width="72" height="8" fill="#FF8205"/>
<rect x="60" y="96" width="72" height="72" fill="#FFAF00"/>
<rect x="76" y="112" width="40" height="40" fill="white"/>
<rect x="68" y="120" width="8" height="24" fill="white"/>
<rect x="116" y="120" width="8" height="24" fill="white"/>
<rect x="108" y="104" width="8" height="24" transform="rotate(90 108 104)" fill="white"/>
<rect x="108" y="152" width="8" height="24" transform="rotate(90 108 152)" fill="white"/>
<rect x="100" y="128" width="8" height="24" transform="rotate(90 100 128)" fill="#E92700"/>
<rect x="100" y="136" width="8" height="24" transform="rotate(180 100 136)" fill="#E92700"/>
<rect x="76" y="96" width="8" height="8" transform="rotate(180 76 96)" fill="#FA500F"/>
<rect x="60" y="168" width="8" height="72" transform="rotate(180 60 168)" fill="#FA500F"/>
<rect x="140" y="168" width="8" height="72" transform="rotate(180 140 168)" fill="#FA500F"/>
<rect x="76" y="184" width="8" height="16" transform="rotate(180 76 184)" fill="#FA500F"/>
<rect x="92" y="48" width="8" height="8" transform="rotate(180 92 48)" fill="#FA500F"/>
<rect x="92" y="96" width="8" height="8" transform="rotate(180 92 96)" fill="#FA500F"/>
<rect x="92" y="184" width="8" height="16" transform="rotate(180 92 184)" fill="#FA500F"/>
<rect x="108" y="48" width="8" height="8" transform="rotate(180 108 48)" fill="#FA500F"/>
<rect x="108" y="96" width="8" height="8" transform="rotate(180 108 96)" fill="#FA500F"/>
<rect x="108" y="184" width="8" height="16" transform="rotate(180 108 184)" fill="#FA500F"/>
<rect x="124" y="96" width="8" height="8" transform="rotate(180 124 96)" fill="#FA500F"/>
<rect x="124" y="184" width="8" height="16" transform="rotate(180 124 184)" fill="#FA500F"/>
<rect x="44" y="72" width="8" height="24" fill="#FF8205"/>
<rect width="8" height="8" transform="matrix(1 0 0 -1 44 80)" fill="#FFD800"/>
<rect width="8" height="8" transform="matrix(1 0 0 -1 44 72)" fill="#FFD800"/>
<rect x="140" y="72" width="8" height="24" fill="#FF8205"/>
<rect width="8" height="8" transform="matrix(1 0 0 -1 140 80)" fill="#FFD800"/>
<rect width="8" height="8" transform="matrix(1 0 0 -1 140 72)" fill="#FFD800"/>
<rect width="8" height="8" transform="matrix(1 0 0 -1 92 8)" fill="#FFD800"/>
<rect x="84" y="24" width="8" height="8" fill="#879FBB"/>
<rect x="100" y="24" width="8" height="8" fill="#879FBB"/>
</svg>
