<svg width="192" height="192" viewBox="0 0 192 192" fill="none" xmlns="http://www.w3.org/2000/svg">
<rect x="64" y="88" width="24" height="32" fill="#097870"/>
<rect x="64" y="112" width="8" height="8" fill="#095A57"/>
<rect x="48" y="24" width="24" height="16" fill="#FFAF00"/>
<rect x="48" y="24" width="8" height="8" fill="#FA500F"/>
<rect x="64" y="32" width="8" height="8" fill="#FA500F"/>
<rect x="48" y="40" width="8" height="8" fill="#095A57"/>
<rect x="56" y="16" width="8" height="8" fill="#FA500F"/>
<rect x="56" y="40" width="16" height="24" fill="#26A18C"/>
<rect x="56" y="40" width="8" height="48" fill="#097870"/>
<rect x="64" y="64" width="16" height="24" fill="#26A18C"/>
<rect x="72" y="88" width="24" height="24" fill="#26A18C"/>
<rect x="88" y="64" width="32" height="24" fill="#26A18C"/>
<rect width="16" height="8" transform="matrix(1 0 0 -1 96 96)" fill="#097870"/>
<rect width="32" height="8" transform="matrix(1 0 0 -1 88 64)" fill="#097870"/>
<rect width="8" height="8" transform="matrix(1 0 0 -1 112 88)" fill="#097870"/>
<rect width="24" height="8" transform="matrix(1 0 0 -1 88 104)" fill="#095A57"/>
<rect width="32" height="88" transform="matrix(1 0 0 -1 88 184)" fill="#26A18C"/>
<rect x="72" y="120" width="16" height="64" fill="#097870"/>
<rect width="8" height="80" transform="matrix(1 0 0 -1 120 184)" fill="#26A18C"/>
<rect width="8" height="56" transform="matrix(1 0 0 -1 128 184)" fill="#26A18C"/>
<rect x="88" y="144" width="8" height="8" fill="#095A57"/>
<rect x="128" y="176" width="8" height="8" fill="#095A57"/>
<rect x="120" y="144" width="8" height="8" fill="#095A57"/>
<rect x="104" y="168" width="8" height="8" fill="#095A57"/>
<rect x="88" y="168" width="8" height="8" fill="#095A57"/>
<rect x="120" y="168" width="8" height="8" fill="#095A57"/>
<rect x="88" y="152" width="16" height="8" fill="#095A57"/>
<rect x="80" y="176" width="24" height="8" fill="#095A57"/>
<rect x="112" y="176" width="16" height="8" fill="#095A57"/>
<rect x="88" y="160" width="40" height="8" fill="#095A57"/>
<rect x="112" y="152" width="16" height="8" fill="#095A57"/>
<rect x="100" y="24" width="8" height="32" fill="#095A57"/>
<rect x="120" y="64" width="16" height="8" fill="#095A57"/>
<rect x="120" y="40" width="8" height="8" fill="#095A57"/>
<rect x="80" y="64" width="8" height="24" fill="#095A57"/>
<rect width="8" height="8" transform="matrix(1 0 0 -1 88 96)" fill="#095A57"/>
<rect x="80" y="56" width="8" height="8" fill="#095A57"/>
<rect x="120" y="56" width="8" height="8" fill="#095A57"/>
<rect x="128" y="32" width="8" height="8" fill="#095A57"/>
<rect x="80" y="40" width="8" height="8" fill="#095A57"/>
<rect x="88" y="56" width="8" height="8" fill="#095A57"/>
<rect x="72" y="32" width="8" height="8" fill="#095A57"/>
<rect x="64" y="40" width="8" height="8" fill="#095A57"/>
<rect x="88" y="48" width="32" height="8" fill="#095A57"/>
<rect width="8" height="8" transform="matrix(1 0 0 -1 120 112)" fill="#097870"/>
<rect width="8" height="8" transform="matrix(1 0 0 -1 112 120)" fill="#097870"/>
<rect width="8" height="8" transform="matrix(1 0 0 -1 72 88)" fill="#095A57"/>
<rect width="8" height="8" transform="matrix(1 0 0 -1 80 96)" fill="#097870"/>
<rect width="8" height="8" transform="matrix(1 0 0 -1 88 104)" fill="#097870"/>
<rect width="8" height="8" transform="matrix(1 0 0 -1 88 88)" fill="#097870"/>
<rect width="8" height="17" transform="matrix(1 0 0 -1 56 105)" fill="#095A57"/>
<rect width="8" height="8" transform="matrix(1 0 0 -1 112 72)" fill="#097870"/>
<rect width="8" height="8" transform="matrix(1 0 0 -1 112 80)" fill="#097870"/>
<rect width="8" height="32" transform="matrix(1 0 0 -1 64 184)" fill="#097870"/>
<rect width="8" height="8" transform="matrix(1 0 0 -1 104 128)" fill="#097870"/>
<rect width="8" height="8" transform="matrix(1 0 0 -1 96 136)" fill="#097870"/>
<rect width="8" height="8" transform="matrix(1 0 0 -1 88 144)" fill="#26A18C"/>
<rect width="8" height="16" transform="matrix(1 0 0 -1 80 160)" fill="#26A18C"/>
</svg>
