<svg width="192" height="192" viewBox="0 0 192 192" fill="none" xmlns="http://www.w3.org/2000/svg">
<rect x="40" y="184" width="24" height="8" fill="#FFAF00"/>
<rect width="24" height="8" transform="matrix(-1 0 0 1 152 184)" fill="#FFAF00"/>
<rect x="48" y="176" width="16" height="8" fill="#FFAF00"/>
<rect width="16" height="8" transform="matrix(-1 0 0 1 144 176)" fill="#FFAF00"/>
<rect x="48" y="168" width="24" height="8" fill="#FFAF00"/>
<rect width="24" height="8" transform="matrix(-1 0 0 1 144 168)" fill="#FFAF00"/>
<rect x="56" y="160" width="16" height="8" fill="#FFAF00"/>
<rect width="16" height="8" transform="matrix(-1 0 0 1 136 160)" fill="#FFAF00"/>
<rect x="56" y="152" width="24" height="8" fill="#FFAF00"/>
<rect width="24" height="8" transform="matrix(-1 0 0 1 136 152)" fill="#FFAF00"/>
<rect x="64" y="144" width="64" height="8" fill="#FFAF00"/>
<rect x="64" y="136" width="64" height="8" fill="#FF8205"/>
<rect x="56" y="128" width="80" height="8" fill="#FA500F"/>
<rect width="48" height="8" transform="matrix(1 0 0 -1 72 88)" fill="#FA500F"/>
<rect width="16" height="64" transform="matrix(1 0 0 -1 88 80)" fill="#FFAF00"/>
<rect width="8" height="16" transform="matrix(1 0 0 -1 92 16)" fill="#526989"/>
<rect width="8" height="8" transform="matrix(1 0 0 -1 92 8)" fill="#0082E6"/>
<rect width="8" height="8" transform="matrix(1 0 0 -1 100 8)" fill="white"/>
<rect width="8" height="8" transform="matrix(1 0 0 -1 108 8)" fill="#E92700"/>
<rect x="76" y="88" width="8" height="8" fill="#FF8205"/>
<rect x="88" y="72" width="8" height="8" fill="#FF8205"/>
<rect x="88" y="56" width="8" height="8" fill="#FF8205"/>
<rect x="88" y="40" width="8" height="8" fill="#FF8205"/>
<rect x="88" y="24" width="8" height="8" fill="#FF8205"/>
<rect x="96" y="64" width="8" height="8" fill="#FF8205"/>
<rect x="96" y="48" width="8" height="8" fill="#FF8205"/>
<rect x="72" y="152" width="8" height="8" fill="#FF8205"/>
<rect x="64" y="168" width="8" height="8" fill="#FF8205"/>
<rect x="56" y="184" width="8" height="8" fill="#FF8205"/>
<rect x="112" y="152" width="8" height="8" fill="#FF8205"/>
<rect x="120" y="168" width="8" height="8" fill="#FF8205"/>
<rect x="128" y="184" width="8" height="8" fill="#FF8205"/>
<rect x="96" y="32" width="8" height="8" fill="#FF8205"/>
<rect x="96" y="16" width="8" height="8" fill="#FF8205"/>
<rect x="116" y="120" width="8" height="8" fill="#FF8205"/>
<rect x="108" y="88" width="8" height="8" fill="#FF8205"/>
<rect x="92" y="112" width="8" height="8" fill="#FFAF00"/>
<rect x="76" y="112" width="8" height="8" fill="#FFAF00"/>
<rect x="108" y="112" width="8" height="8" fill="#FFAF00"/>
<rect x="76" y="96" width="16" height="8" fill="#FFAF00"/>
<rect x="68" y="120" width="24" height="8" fill="#FF8205"/>
<rect x="100" y="120" width="16" height="8" fill="#FF8205"/>
<rect x="76" y="104" width="40" height="8" fill="#FF8205"/>
<rect x="100" y="96" width="16" height="8" fill="#FFAF00"/>
</svg>