<svg width="192" height="192" viewBox="0 0 192 192" fill="none" xmlns="http://www.w3.org/2000/svg">
<rect x="12" y="152" width="168" height="8" fill="#FA500F"/>
<rect width="168" height="8" transform="matrix(1 0 0 -1 12 168)" fill="#E92700"/>
<rect x="76" y="48" width="8" height="104" fill="#FA500F"/>
<rect x="108" y="48" width="8" height="104" fill="#FA500F"/>
<rect x="84" y="128" width="24" height="8" fill="#FA500F"/>
<rect x="84" y="104" width="24" height="8" fill="#FA500F"/>
<rect x="84" y="80" width="24" height="8" fill="#FA500F"/>
<rect x="76" y="128" width="8" height="8" fill="#FF8205"/>
<rect x="76" y="104" width="8" height="8" fill="#FF8205"/>
<rect x="76" y="80" width="8" height="8" fill="#FF8205"/>
<rect x="76" y="40" width="8" height="8" fill="#FF8205"/>
<rect x="76" y="32" width="8" height="8" fill="#FF8205"/>
<rect x="84" y="48" width="8" height="8" fill="#FF8205"/>
<rect x="84" y="56" width="8" height="8" fill="#E92700"/>
<rect x="100" y="56" width="8" height="8" fill="#E92700"/>
<rect x="92" y="56" width="8" height="8" fill="#FF8205"/>
<rect x="100" y="48" width="8" height="8" fill="#FF8205"/>
<rect x="108" y="128" width="8" height="8" fill="#FF8205"/>
<rect x="108" y="104" width="8" height="8" fill="#FF8205"/>
<rect x="108" y="80" width="8" height="8" fill="#FF8205"/>
<rect x="108" y="40" width="8" height="8" fill="#FF8205"/>
<rect x="108" y="32" width="8" height="8" fill="#FF8205"/>
<rect x="76" y="112" width="8" height="8" fill="#E92700"/>
<rect x="116" y="144" width="8" height="8" fill="#E92700"/>
<rect x="108" y="112" width="8" height="8" fill="#E92700"/>
<rect x="92" y="136" width="8" height="8" fill="#E92700"/>
<rect x="76" y="136" width="8" height="8" fill="#E92700"/>
<rect x="108" y="136" width="8" height="8" fill="#E92700"/>
<rect x="76" y="120" width="16" height="8" fill="#E92700"/>
<rect x="68" y="144" width="24" height="8" fill="#E92700"/>
<rect x="100" y="144" width="16" height="8" fill="#E92700"/>
<rect x="76" y="128" width="40" height="8" fill="#E92700"/>
<rect x="100" y="120" width="16" height="8" fill="#E92700"/>
<rect x="116" y="56" width="8" height="24" fill="#E92700"/>
<rect width="8" height="24" transform="matrix(-1 0 0 1 76 56)" fill="#E92700"/>
<rect x="140" y="112" width="8" height="16" fill="#E92700"/>
<rect width="8" height="16" transform="matrix(-1 0 0 1 52 112)" fill="#E92700"/>
<rect x="148" y="128" width="8" height="8" fill="#E92700"/>
<rect width="8" height="8" transform="matrix(-1 0 0 1 44 128)" fill="#E92700"/>
<rect x="156" y="136" width="8" height="8" fill="#E92700"/>
<rect width="8" height="8" transform="matrix(-1 0 0 1 36 136)" fill="#E92700"/>
<rect x="164" y="144" width="16" height="8" fill="#E92700"/>
<rect width="16" height="8" transform="matrix(-1 0 0 1 28 144)" fill="#E92700"/>
<rect x="124" y="80" width="8" height="16" fill="#E92700"/>
<rect width="8" height="16" transform="matrix(-1 0 0 1 68 80)" fill="#E92700"/>
<rect x="132" y="96" width="8" height="16" fill="#E92700"/>
<rect width="8" height="16" transform="matrix(-1 0 0 1 60 96)" fill="#E92700"/>
</svg>
