<svg width="192" height="192" viewBox="0 0 192 192" fill="none" xmlns="http://www.w3.org/2000/svg">
<rect x="16" y="144" width="153" height="8" fill="#0082E6"/>
<rect x="8" y="152" width="168" height="8" fill="#0082E6"/>
<rect x="16" y="136" width="152" height="8" fill="#526989"/>
<rect x="64" y="112" width="88" height="24" fill="#FF8205"/>
<rect x="64" y="112" width="88" height="8" fill="#FA500F"/>
<rect width="32" height="24" transform="matrix(-1 0 0 1 64 112)" fill="#FF8205"/>
<rect x="56" y="112" width="24" height="8" transform="rotate(180 56 112)" fill="#FA500F"/>
<rect x="56" y="136" width="32" height="8" transform="rotate(-90 56 136)" fill="#FA500F"/>
<rect x="136" y="104" width="8" height="8" fill="white"/>
<rect x="136" y="72" width="16" height="32" fill="white"/>
<rect x="136" y="48" width="8" height="8" fill="white"/>
<rect x="144" y="40" width="8" height="8" fill="white"/>
<rect x="136" y="40" width="8" height="8" fill="white"/>
<rect x="128" y="40" width="8" height="8" fill="white"/>
<rect x="120" y="40" width="8" height="8" fill="white"/>
<rect x="160" y="72" width="8" height="8" fill="white"/>
<rect x="40" y="32" width="8" height="16" fill="white"/>
<rect x="8" y="56" width="8" height="8" fill="white"/>
<rect x="128" y="80" width="8" height="32" fill="white"/>
<rect x="112" y="48" width="16" height="64" fill="white"/>
<rect x="152" y="72" width="8" height="16" fill="white"/>
<rect x="128" y="48" width="8" height="16" fill="white"/>
<rect x="104" y="56" width="8" height="56" fill="white"/>
<rect x="32" y="64" width="8" height="40" fill="white"/>
<rect x="40" y="64" width="8" height="40" fill="white"/>
<rect x="64" y="40" width="8" height="72" fill="white"/>
<rect x="16" y="56" width="8" height="16" fill="white"/>
<rect x="48" y="32" width="8" height="24" fill="white"/>
<rect x="48" y="48" width="8" height="8" fill="#B5B7C5"/>
<rect x="32" y="32" width="8" height="8" fill="white"/>
<rect x="16" y="72" width="8" height="8" fill="#B5B7C5"/>
<rect x="24" y="56" width="8" height="40" fill="white"/>
<rect x="120" y="80" width="8" height="8" fill="#B5B7C5"/>
<rect x="96" y="72" width="8" height="8" fill="#B5B7C5"/>
<rect x="56" y="32" width="8" height="48" fill="white"/>
<rect x="48" y="72" width="8" height="32" fill="#B5B7C5"/>
<rect x="64" y="72" width="8" height="32" fill="#B5B7C5"/>
<rect x="56" y="56" width="8" height="16" fill="#B5B7C5"/>
<rect x="24" y="80" width="8" height="16" fill="#B5B7C5"/>
<rect x="144" y="88" width="8" height="16" fill="#B5B7C5"/>
<rect x="120" y="64" width="8" height="16" fill="#B5B7C5"/>
<rect x="56" y="72" width="8" height="32" fill="#526989"/>
<rect x="72" y="48" width="8" height="64" fill="white"/>
<rect x="80" y="56" width="8" height="56" fill="white"/>
<rect x="88" y="64" width="8" height="48" fill="white"/>
<rect x="96" y="80" width="8" height="32" fill="#B5B7C5"/>
<rect x="64" y="104" width="32" height="8" fill="#526989"/>
<rect x="104" y="104" width="32" height="8" fill="#526989"/>
<rect x="104" y="96" width="17" height="8" fill="#526989"/>
<rect x="79" y="96" width="17" height="8" fill="#526989"/>
<rect x="40" y="120" width="8" height="8" fill="#FA500F"/>
<rect x="72" y="128" width="8" height="8" fill="#FA500F"/>
<rect x="88" y="128" width="8" height="8" fill="#FA500F"/>
<rect x="40" y="96" width="8" height="8" fill="#FFD800"/>
<rect x="80" y="128" width="8" height="8" fill="#FFD800"/>
<rect x="72" y="96" width="8" height="8" fill="#FFD800"/>
<rect x="56" y="120" width="8" height="8" fill="#FFD800"/>
<rect x="40" y="120" width="8" height="8" fill="#FFD800"/>
<rect x="72" y="120" width="8" height="8" fill="#FFD800"/>
<rect x="40" y="104" width="16" height="8" fill="#FFD800"/>
<rect x="32" y="128" width="24" height="8" fill="#FFD800"/>
<rect x="64" y="128" width="16" height="8" fill="#FFD800"/>
<rect x="40" y="112" width="40" height="8" fill="#FFD800"/>
<rect x="64" y="104" width="16" height="8" fill="#FFD800"/>
<rect x="104" y="128" width="8" height="8" fill="#FA500F"/>
<rect x="120" y="128" width="8" height="8" fill="#FA500F"/>
<rect x="136" y="128" width="8" height="8" fill="#FA500F"/>
</svg>
