<svg width="192" height="192" viewBox="0 0 192 192" fill="none" xmlns="http://www.w3.org/2000/svg">
<rect x="40" y="184" width="24" height="8" fill="#E92700"/>
<rect width="24" height="8" transform="matrix(-1 0 0 1 152 184)" fill="#E92700"/>
<rect x="48" y="176" width="16" height="8" fill="#E92700"/>
<rect width="16" height="8" transform="matrix(-1 0 0 1 144 176)" fill="#E92700"/>
<rect x="56" y="168" width="24" height="8" fill="#E92700"/>
<rect width="24" height="8" transform="matrix(-1 0 0 1 136 168)" fill="#E92700"/>
<rect x="64" y="160" width="8" height="8" fill="#E92700"/>
<rect x="64" y="176" width="8" height="8" fill="#E92700"/>
<rect x="120" y="176" width="8" height="8" fill="#E92700"/>
<rect width="8" height="8" transform="matrix(-1 0 0 1 128 160)" fill="#E92700"/>
<rect x="64" y="144" width="64" height="8" fill="#FA500F"/>
<rect x="68" y="152" width="8" height="8" fill="#E92700"/>
<rect x="84" y="152" width="8" height="8" fill="#E92700"/>
<rect x="100" y="152" width="8" height="8" fill="#E92700"/>
<rect x="116" y="152" width="8" height="8" fill="#E92700"/>
<rect x="72" y="160" width="48" height="8" fill="#E92700"/>
<rect x="72" y="136" width="48" height="8" fill="#E92700"/>
<rect width="16" height="8" transform="matrix(1 0 0 -1 88 88)" fill="#FA500F"/>
<rect width="32" height="8" transform="matrix(1 0 0 -1 80 96)" fill="#E92700"/>
<rect width="16" height="56" transform="matrix(1 0 0 -1 88 80)" fill="#E92700"/>
<rect width="16" height="16" transform="matrix(1 0 0 -1 88 48)" fill="white"/>
<rect width="16" height="8" transform="matrix(1 0 0 -1 88 72)" fill="white"/>
<rect width="8" height="24" transform="matrix(1 0 0 -1 92 24)" fill="#FA500F"/>
<rect width="8" height="8" transform="matrix(1 0 0 -1 92 16)" fill="white"/>
<rect x="76" y="96" width="8" height="8" fill="white"/>
<rect x="116" y="128" width="8" height="8" fill="white"/>
<rect x="108" y="96" width="8" height="8" fill="white"/>
<rect x="92" y="120" width="8" height="8" fill="white"/>
<rect x="76" y="120" width="8" height="8" fill="white"/>
<rect x="108" y="120" width="8" height="8" fill="white"/>
<rect x="76" y="104" width="16" height="8" fill="white"/>
<rect x="68" y="128" width="24" height="8" fill="white"/>
<rect x="100" y="128" width="16" height="8" fill="white"/>
<rect x="76" y="112" width="40" height="8" fill="white"/>
<rect x="100" y="104" width="16" height="8" fill="white"/>
</svg>
